{
  "accessors": [
    {
      "bufferView": 2,
      "componentType": 5126,
      "count": 476,
      "max": [
        1.3429805040359497,
        1.7104861736297607,
        1.465558648109436
      ],
      "min": [
        -1.3016589879989624,
        -1.4786127805709839,
        -1.3807222843170166
      ],
      "type": "VEC3"
    },
    {
      "bufferView": 2,
      "byteOffset": 5712,
      "componentType": 5126,
      "count": 476,
      "max": [
        0.9797259569168091,
        0.9897739887237549,
        0.9668941497802734
      ],
      "min": [
        -0.9737895727157593,
        -0.9482618570327759,
        -0.9734789133071899
      ],
      "type": "VEC3"
    },
    {
      "bufferView": 1,
      "componentType": 5126,
      "count": 476,
      "max": [
        0.41039904952049255,
        0.6403027176856995
      ],
      "min": [
        0.3655470311641693,
        0.580346941947937
      ],
      "type": "VEC2"
    },
    {
      "bufferView": 0,
      "componentType": 5125,
      "count": 516,
      "type": "SCALAR"
    },
    {
      "bufferView": 2,
      "byteOffset": 11424,
      "componentType": 5126,
      "count": 12021,
      "max": [
        3.282270908355713,
        0.261515349149704,
        0.15055066347122192
      ],
      "min": [
        -0.2884468734264374,
        -0.261515349149704,
        -0.655306339263916
      ],
      "type": "VEC3"
    },
    {
      "bufferView": 2,
      "byteOffset": 155676,
      "componentType": 5126,
      "count": 12021,
      "max": [
        1.0,
        1.0,
        1.0
      ],
      "min": [
        -1.0,
        -1.0,
        -1.0
      ],
      "type": "VEC3"
    },
    {
      "bufferView": 1,
      "byteOffset": 3808,
      "componentType": 5126,
      "count": 12021,
      "max": [
        0.9048370122909546,
        0.9012994766235352
      ],
      "min": [
        0.08997437357902527,
        0.007232010364532471
      ],
      "type": "VEC2"
    },
    {
      "bufferView": 0,
      "byteOffset": 2064,
      "componentType": 5125,
      "count": 13716,
      "type": "SCALAR"
    },
    {
      "bufferView": 2,
      "byteOffset": 299928,
      "componentType": 5126,
      "count": 476,
      "max": [
        3.3266987800598145,
        1.795323133468628,
        -1.190839409828186
      ],
      "min": [
        0.6820591688156128,
        -1.3937758207321167,
        -4.037120342254639
      ],
      "type": "VEC3"
    },
    {
      "bufferView": 2,
      "byteOffset": 305640,
      "componentType": 5126,
      "count": 476,
      "max": [
        0.9797261357307434,
        0.9897740483283997,
        0.966894268989563
      ],
      "min": [
        -0.9737895727157593,
        -0.9482618570327759,
        -0.9734789133071899
      ],
      "type": "VEC3"
    },
    {
      "bufferView": 1,
      "byteOffset": 99976,
      "componentType": 5126,
      "count": 476,
      "max": [
        0.41039904952049255,
        0.6403027176856995
      ],
      "min": [
        0.3655470311641693,
        0.580346941947937
      ],
      "type": "VEC2"
    },
    {
      "bufferView": 0,
      "byteOffset": 56928,
      "componentType": 5125,
      "count": 516,
      "type": "SCALAR"
    },
    {
      "bufferView": 2,
      "byteOffset": 311352,
      "componentType": 5126,
      "count": 476,
      "max": [
        1.3429805040359497,
        1.7104861736297607,
        1.465558648109436
      ],
      "min": [
        -1.3016589879989624,
        -1.4786127805709839,
        -1.3807222843170166
      ],
      "type": "VEC3"
    },
    {
      "bufferView": 2,
      "byteOffset": 317064,
      "componentType": 5126,
      "count": 476,
      "max": [
        0.9797259569168091,
        0.9897739887237549,
        0.9668941497802734
      ],
      "min": [
        -0.9737895727157593,
        -0.9482618570327759,
        -0.9734789133071899
      ],
      "type": "VEC3"
    },
    {
      "bufferView": 1,
      "byteOffset": 103784,
      "componentType": 5126,
      "count": 476,
      "max": [
        0.41039904952049255,
        0.6403027176856995
      ],
      "min": [
        0.3655470311641693,
        0.580346941947937
      ],
      "type": "VEC2"
    },
    {
      "bufferView": 0,
      "byteOffset": 58992,
      "componentType": 5125,
      "count": 516,
      "type": "SCALAR"
    },
    {
      "bufferView": 2,
      "byteOffset": 322776,
      "componentType": 5126,
      "count": 476,
      "max": [
        1.3429805040359497,
        1.7104861736297607,
        1.465558648109436
      ],
      "min": [
        -1.3016589879989624,
        -1.4786127805709839,
        -1.3807222843170166
      ],
      "type": "VEC3"
    },
    {
      "bufferView": 2,
      "byteOffset": 328488,
      "componentType": 5126,
      "count": 476,
      "max": [
        0.9797259569168091,
        0.9897739887237549,
        0.9668941497802734
      ],
      "min": [
        -0.9737895727157593,
        -0.9482618570327759,
        -0.9734789133071899
      ],
      "type": "VEC3"
    },
    {
      "bufferView": 1,
      "byteOffset": 107592,
      "componentType": 5126,
      "count": 476,
      "max": [
        0.41039904952049255,
        0.6403027176856995
      ],
      "min": [
        0.3655470311641693,
        0.580346941947937
      ],
      "type": "VEC2"
    },
    {
      "bufferView": 0,
      "byteOffset": 61056,
      "componentType": 5125,
      "count": 516,
      "type": "SCALAR"
    },
    {
      "bufferView": 2,
      "byteOffset": 334200,
      "componentType": 5126,
      "count": 448,
      "max": [
        4.6567511558532715,
        0.23125064373016357,
        0.4990241527557373
      ],
      "min": [
        -0.2316550612449646,
        -5.433090686798096,
        -0.5423175096511841
      ],
      "type": "VEC3"
    },
    {
      "bufferView": 2,
      "byteOffset": 339576,
      "componentType": 5126,
      "count": 448,
      "max": [
        0.9865750074386597,
        0.9522819519042969,
        0.9926731586456299
      ],
      "min": [
        -0.9811464548110962,
        -0.9976428151130676,
        -1.0
      ],
      "type": "VEC3"
    },
    {
      "bufferView": 1,
      "byteOffset": 111400,
      "componentType": 5126,
      "count": 448,
      "max": [
        0.8453449606895447,
        0.7144768238067627
      ],
      "min": [
        0.555718719959259,
        0.3185514807701111
      ],
      "type": "VEC2"
    },
    {
      "bufferView": 0,
      "byteOffset": 63120,
      "componentType": 5125,
      "count": 1506,
      "type": "SCALAR"
    },
    {
      "bufferView": 2,
      "byteOffset": 344952,
      "componentType": 5126,
      "count": 189,
      "max": [
        1.5,
        1.0,
        0.0
      ],
      "min": [
        -1.5,
        -1.0,
        0.0
      ],
      "type": "VEC3"
    },
    {
      "bufferView": 2,
      "byteOffset": 347220,
      "componentType": 5126,
      "count": 189,
      "max": [
        0.0,
        0.0,
        1.0
      ],
      "min": [
        0.0,
        0.0,
        1.0
      ],
      "type": "VEC3"
    },
    {
      "bufferView": 1,
      "byteOffset": 114984,
      "componentType": 5126,
      "count": 189,
      "max": [
        0.6380031108856201,
        0.8911824226379395
      ],
      "min": [
        0.5454391837120056,
        0.10716557502746582
      ],
      "type": "VEC2"
    },
    {
      "bufferView": 0,
      "byteOffset": 69144,
      "componentType": 5125,
      "count": 510,
      "type": "SCALAR"
    },
    {
      "bufferView": 2,
      "byteOffset": 349488,
      "componentType": 5126,
      "count": 12,
      "max": [
        1.38913094997406,
        1.3891308307647705,
        0.0
      ],
      "min": [
        -1.38913094997406,
        -1.3891308307647705,
        0.0
      ],
      "type": "VEC3"
    },
    {
      "bufferView": 2,
      "byteOffset": 349632,
      "componentType": 5126,
      "count": 12,
      "max": [
        0.0,
        0.0,
        1.0
      ],
      "min": [
        0.0,
        0.0,
        1.0
      ],
      "type": "VEC3"
    },
    {
      "bufferView": 1,
      "byteOffset": 116496,
      "componentType": 5126,
      "count": 12,
      "max": [
        0.8839226961135864,
        0.8311883211135864
      ],
      "min": [
        0.03926953673362732,
        0.5452380180358887
      ],
      "type": "VEC2"
    },
    {
      "bufferView": 0,
      "byteOffset": 71184,
      "componentType": 5125,
      "count": 30,
      "type": "SCALAR"
    },
    {
      "bufferView": 2,
      "byteOffset": 349776,
      "componentType": 5126,
      "count": 56,
      "max": [
        1.38913094997406,
        1.3891308307647705,
        0.051265645772218704
      ],
      "min": [
        -1.38913094997406,
        -1.3891308307647705,
        -0.0609852597117424
      ],
      "type": "VEC3"
    },
    {
      "bufferView": 2,
      "byteOffset": 350448,
      "componentType": 5126,
      "count": 56,
      "max": [
        1.0,
        1.0,
        1.0
      ],
      "min": [
        -1.0,
        -1.0,
        -1.0
      ],
      "type": "VEC3"
    },
    {
      "bufferView": 1,
      "byteOffset": 116592,
      "componentType": 5126,
      "count": 56,
      "max": [
        0.41015616059303284,
        0.0937499850988388
      ],
      "min": [
        0.0,
        0.0
      ],
      "type": "VEC2"
    },
    {
      "bufferView": 0,
      "byteOffset": 71304,
      "componentType": 5125,
      "count": 96,
      "type": "SCALAR"
    },
    {
      "bufferView": 2,
      "byteOffset": 351120,
      "componentType": 5126,
      "count": 153,
      "max": [
        0.23908792436122894,
        0.24621246755123138,
        0.4090269207954407
      ],
      "min": [
        -0.2609970271587372,
        -0.2549995183944702,
        -0.07054813951253891
      ],
      "type": "VEC3"
    },
    {
      "bufferView": 2,
      "byteOffset": 352956,
      "componentType": 5126,
      "count": 153,
      "max": [
        1.0,
        0.475650817155838,
        3.029326123282772e-08
      ],
      "min": [
        -0.5983696579933167,
        -0.999592125415802,
        -3.4677132276783595e-08
      ],
      "type": "VEC3"
    },
    {
      "bufferView": 1,
      "byteOffset": 117040,
      "componentType": 5126,
      "count": 153,
      "max": [
        0.6909369230270386,
        0.8784369230270386
      ],
      "min": [
        0.6684380769729614,
        0.8559380769729614
      ],
      "type": "VEC2"
    },
    {
      "bufferView": 0,
      "byteOffset": 71688,
      "componentType": 5125,
      "count": 240,
      "type": "SCALAR"
    },
    {
      "bufferView": 2,
      "byteOffset": 354792,
      "componentType": 5126,
      "count": 153,
      "max": [
        0.23908792436122894,
        0.24621246755123138,
        0.4090269207954407
      ],
      "min": [
        -0.2609970271587372,
        -0.2549995183944702,
        -0.07054813951253891
      ],
      "type": "VEC3"
    },
    {
      "bufferView": 2,
      "byteOffset": 356628,
      "componentType": 5126,
      "count": 153,
      "max": [
        1.0,
        0.475650817155838,
        3.029326123282772e-08
      ],
      "min": [
        -0.5983696579933167,
        -0.999592125415802,
        -3.4677132276783595e-08
      ],
      "type": "VEC3"
    },
    {
      "bufferView": 1,
      "byteOffset": 118264,
      "componentType": 5126,
      "count": 153,
      "max": [
        0.6909369230270386,
        0.8784369230270386
      ],
      "min": [
        0.6684380769729614,
        0.8559380769729614
      ],
      "type": "VEC2"
    },
    {
      "bufferView": 0,
      "byteOffset": 72648,
      "componentType": 5125,
      "count": 240,
      "type": "SCALAR"
    },
    {
      "bufferView": 2,
      "byteOffset": 358464,
      "componentType": 5126,
      "count": 153,
      "max": [
        0.23908792436122894,
        0.24621246755123138,
        0.4090269207954407
      ],
      "min": [
        -0.2609970271587372,
        -0.2549995183944702,
        -0.07054813951253891
      ],
      "type": "VEC3"
    },
    {
      "bufferView": 2,
      "byteOffset": 360300,
      "componentType": 5126,
      "count": 153,
      "max": [
        1.0,
        0.475650817155838,
        3.029326123282772e-08
      ],
      "min": [
        -0.5983696579933167,
        -0.999592125415802,
        -3.4677132276783595e-08
      ],
      "type": "VEC3"
    },
    {
      "bufferView": 1,
      "byteOffset": 119488,
      "componentType": 5126,
      "count": 153,
      "max": [
        0.6909369230270386,
        0.8784369230270386
      ],
      "min": [
        0.6684380769729614,
        0.8559380769729614
      ],
      "type": "VEC2"
    },
    {
      "bufferView": 0,
      "byteOffset": 73608,
      "componentType": 5125,
      "count": 240,
      "type": "SCALAR"
    },
    {
      "bufferView": 2,
      "byteOffset": 362136,
      "componentType": 5126,
      "count": 153,
      "max": [
        0.23908792436122894,
        0.24621246755123138,
        0.4090269207954407
      ],
      "min": [
        -0.2609970271587372,
        -0.2549995183944702,
        -0.07054813951253891
      ],
      "type": "VEC3"
    },
    {
      "bufferView": 2,
      "byteOffset": 363972,
      "componentType": 5126,
      "count": 153,
      "max": [
        1.0,
        0.475650817155838,
        3.029326123282772e-08
      ],
      "min": [
        -0.5983696579933167,
        -0.999592125415802,
        -3.4677132276783595e-08
      ],
      "type": "VEC3"
    },
    {
      "bufferView": 1,
      "byteOffset": 120712,
      "componentType": 5126,
      "count": 153,
      "max": [
        0.6909369230270386,
        0.8784369230270386
      ],
      "min": [
        0.6684380769729614,
        0.8559380769729614
      ],
      "type": "VEC2"
    },
    {
      "bufferView": 0,
      "byteOffset": 74568,
      "componentType": 5125,
      "count": 240,
      "type": "SCALAR"
    },
    {
      "bufferView": 2,
      "byteOffset": 365808,
      "componentType": 5126,
      "count": 153,
      "max": [
        0.23908792436122894,
        0.24621246755123138,
        0.4090269207954407
      ],
      "min": [
        -0.2609970271587372,
        -0.2549995183944702,
        -0.07054813951253891
      ],
      "type": "VEC3"
    },
    {
      "bufferView": 2,
      "byteOffset": 367644,
      "componentType": 5126,
      "count": 153,
      "max": [
        1.0,
        0.475650817155838,
        3.029326123282772e-08
      ],
      "min": [
        -0.5983696579933167,
        -0.999592125415802,
        -3.4677132276783595e-08
      ],
      "type": "VEC3"
    },
    {
      "bufferView": 1,
      "byteOffset": 121936,
      "componentType": 5126,
      "count": 153,
      "max": [
        0.6909369230270386,
        0.8784369230270386
      ],
      "min": [
        0.6684380769729614,
        0.8559380769729614
      ],
      "type": "VEC2"
    },
    {
      "bufferView": 0,
      "byteOffset": 75528,
      "componentType": 5125,
      "count": 240,
      "type": "SCALAR"
    },
    {
      "bufferView": 2,
      "byteOffset": 369480,
      "componentType": 5126,
      "count": 153,
      "max": [
        0.23908792436122894,
        0.24621246755123138,
        0.4090269207954407
      ],
      "min": [
        -0.2609970271587372,
        -0.2549995183944702,
        -0.07054813951253891
      ],
      "type": "VEC3"
    },
    {
      "bufferView": 2,
      "byteOffset": 371316,
      "componentType": 5126,
      "count": 153,
      "max": [
        1.0,
        0.475650817155838,
        3.029326123282772e-08
      ],
      "min": [
        -0.5983696579933167,
        -0.999592125415802,
        -3.4677132276783595e-08
      ],
      "type": "VEC3"
    },
    {
      "bufferView": 1,
      "byteOffset": 123160,
      "componentType": 5126,
      "count": 153,
      "max": [
        0.6909369230270386,
        0.8784369230270386
      ],
      "min": [
        0.6684380769729614,
        0.8559380769729614
      ],
      "type": "VEC2"
    },
    {
      "bufferView": 0,
      "byteOffset": 76488,
      "componentType": 5125,
      "count": 240,
      "type": "SCALAR"
    },
    {
      "bufferView": 2,
      "byteOffset": 373152,
      "componentType": 5126,
      "count": 153,
      "max": [
        0.23908792436122894,
        0.24621246755123138,
        0.4090269207954407
      ],
      "min": [
        -0.2609970271587372,
        -0.2549995183944702,
        -0.07054813951253891
      ],
      "type": "VEC3"
    },
    {
      "bufferView": 2,
      "byteOffset": 374988,
      "componentType": 5126,
      "count": 153,
      "max": [
        1.0,
        0.475650817155838,
        3.029326123282772e-08
      ],
      "min": [
        -0.5983696579933167,
        -0.999592125415802,
        -3.4677132276783595e-08
      ],
      "type": "VEC3"
    },
    {
      "bufferView": 1,
      "byteOffset": 124384,
      "componentType": 5126,
      "count": 153,
      "max": [
        0.6909369230270386,
        0.8784369230270386
      ],
      "min": [
        0.6684380769729614,
        0.8559380769729614
      ],
      "type": "VEC2"
    },
    {
      "bufferView": 0,
      "byteOffset": 77448,
      "componentType": 5125,
      "count": 240,
      "type": "SCALAR"
    },
    {
      "bufferView": 2,
      "byteOffset": 376824,
      "componentType": 5126,
      "count": 153,
      "max": [
        0.23908792436122894,
        0.24621246755123138,
        0.4090269207954407
      ],
      "min": [
        -0.2609970271587372,
        -0.2549995183944702,
        -0.07054813951253891
      ],
      "type": "VEC3"
    },
    {
      "bufferView": 2,
      "byteOffset": 378660,
      "componentType": 5126,
      "count": 153,
      "max": [
        1.0,
        0.475650817155838,
        3.029326123282772e-08
      ],
      "min": [
        -0.5983696579933167,
        -0.999592125415802,
        -3.4677132276783595e-08
      ],
      "type": "VEC3"
    },
    {
      "bufferView": 1,
      "byteOffset": 125608,
      "componentType": 5126,
      "count": 153,
      "max": [
        0.6909369230270386,
        0.8784369230270386
      ],
      "min": [
        0.6684380769729614,
        0.8559380769729614
      ],
      "type": "VEC2"
    },
    {
      "bufferView": 0,
      "byteOffset": 78408,
      "componentType": 5125,
      "count": 240,
      "type": "SCALAR"
    },
    {
      "bufferView": 2,
      "byteOffset": 380496,
      "componentType": 5126,
      "count": 153,
      "max": [
        0.23908792436122894,
        0.24621246755123138,
        0.4090269207954407
      ],
      "min": [
        -0.2609970271587372,
        -0.2549995183944702,
        -0.07054813951253891
      ],
      "type": "VEC3"
    },
    {
      "bufferView": 2,
      "byteOffset": 382332,
      "componentType": 5126,
      "count": 153,
      "max": [
        1.0,
        0.475650817155838,
        3.029326123282772e-08
      ],
      "min": [
        -0.5983696579933167,
        -0.999592125415802,
        -3.4677132276783595e-08
      ],
      "type": "VEC3"
    },
    {
      "bufferView": 1,
      "byteOffset": 126832,
      "componentType": 5126,
      "count": 153,
      "max": [
        0.6909369230270386,
        0.8784369230270386
      ],
      "min": [
        0.6684380769729614,
        0.8559380769729614
      ],
      "type": "VEC2"
    },
    {
      "bufferView": 0,
      "byteOffset": 79368,
      "componentType": 5125,
      "count": 240,
      "type": "SCALAR"
    },
    {
      "bufferView": 2,
      "byteOffset": 384168,
      "componentType": 5126,
      "count": 153,
      "max": [
        0.23908792436122894,
        0.24621246755123138,
        0.4090269207954407
      ],
      "min": [
        -0.2609970271587372,
        -0.2549995183944702,
        -0.07054813951253891
      ],
      "type": "VEC3"
    },
    {
      "bufferView": 2,
      "byteOffset": 386004,
      "componentType": 5126,
      "count": 153,
      "max": [
        1.0,
        0.475650817155838,
        3.029326123282772e-08
      ],
      "min": [
        -0.5983696579933167,
        -0.999592125415802,
        -3.4677132276783595e-08
      ],
      "type": "VEC3"
    },
    {
      "bufferView": 1,
      "byteOffset": 128056,
      "componentType": 5126,
      "count": 153,
      "max": [
        0.6909369230270386,
        0.8784369230270386
      ],
      "min": [
        0.6684380769729614,
        0.8559380769729614
      ],
      "type": "VEC2"
    },
    {
      "bufferView": 0,
      "byteOffset": 80328,
      "componentType": 5125,
      "count": 240,
      "type": "SCALAR"
    }
  ],
  "asset": {
    "extras": {
      "author": "XimovsYZ (https://sketchfab.com/ximovsstudio)",
      "license": "CC-BY-4.0 (http://creativecommons.org/licenses/by/4.0/)",
      "source": "https://sketchfab.com/3d-models/basketball-court-low-poly-3da336056a714ba2a5687766b6373556",
      "title": "Basketball Court | [Low-Poly]"
    },
    "generator": "Sketchfab-16.67.0",
    "version": "2.0"
  },
  "bufferViews": [
    {
      "buffer": 0,
      "byteLength": 81288,
      "name": "floatBufferViews",
      "target": 34963
    },
    {
      "buffer": 0,
      "byteLength": 129280,
      "byteOffset": 81288,
      "byteStride": 8,
      "name": "floatBufferViews",
      "target": 34962
    },
    {
      "buffer": 0,
      "byteLength": 387840,
      "byteOffset": 210568,
      "byteStride": 12,
      "name": "floatBufferViews",
      "target": 34962
    }
  ],
  "buffers": [
    {
      "byteLength": 598408,
      "uri": "scene.bin"
    }
  ],
  "extensionsRequired": [
    "KHR_materials_pbrSpecularGlossiness"
  ],
  "extensionsUsed": [
    "KHR_materials_pbrSpecularGlossiness"
  ],
  "images": [
    {
      "uri": "textures/Material_diffuse.png"
    }
  ],
  "materials": [
    {
      "doubleSided": true,
      "extensions": {
        "KHR_materials_pbrSpecularGlossiness": {
          "diffuseFactor": [
            1.0,
            1.0,
            1.0,
            1.0
          ],
          "diffuseTexture": {
            "index": 0
          },
          "glossinessFactor": 1.0,
          "specularFactor": [
            0.0,
            0.0,
            0.0
          ]
        }
      },
      "name": "Material"
    }
  ],
  "meshes": [
    {
      "name": "Cube_Material_0",
      "primitives": [
        {
          "attributes": {
            "NORMAL": 1,
            "POSITION": 0,
            "TEXCOORD_0": 2
          },
          "indices": 3,
          "material": 0,
          "mode": 4
        }
      ]
    },
    {
      "name": "Cube.001_Material_0",
      "primitives": [
        {
          "attributes": {
            "NORMAL": 5,
            "POSITION": 4,
            "TEXCOORD_0": 6
          },
          "indices": 7,
          "material": 0,
          "mode": 4
        }
      ]
    },
    {
      "name": "Cube.002_Material_0",
      "primitives": [
        {
          "attributes": {
            "NORMAL": 9,
            "POSITION": 8,
            "TEXCOORD_0": 10
          },
          "indices": 11,
          "material": 0,
          "mode": 4
        }
      ]
    },
    {
      "name": "Cube.003_Material_0",
      "primitives": [
        {
          "attributes": {
            "NORMAL": 13,
            "POSITION": 12,
            "TEXCOORD_0": 14
          },
          "indices": 15,
          "material": 0,
          "mode": 4
        }
      ]
    },
    {
      "name": "Cube.004_Material_0",
      "primitives": [
        {
          "attributes": {
            "NORMAL": 17,
            "POSITION": 16,
            "TEXCOORD_0": 18
          },
          "indices": 19,
          "material": 0,
          "mode": 4
        }
      ]
    },
    {
      "name": "Cylinder.003_Material_0",
      "primitives": [
        {
          "attributes": {
            "NORMAL": 21,
            "POSITION": 20,
            "TEXCOORD_0": 22
          },
          "indices": 23,
          "material": 0,
          "mode": 4
        }
      ]
    },
    {
      "name": "Plane_Material_0",
      "primitives": [
        {
          "attributes": {
            "NORMAL": 25,
            "POSITION": 24,
            "TEXCOORD_0": 26
          },
          "indices": 27,
          "material": 0,
          "mode": 4
        }
      ]
    },
    {
      "name": "Plane.001_Material_0",
      "primitives": [
        {
          "attributes": {
            "NORMAL": 29,
            "POSITION": 28,
            "TEXCOORD_0": 30
          },
          "indices": 31,
          "material": 0,
          "mode": 4
        }
      ]
    },
    {
      "name": "Plane.002_Material_0",
      "primitives": [
        {
          "attributes": {
            "NORMAL": 33,
            "POSITION": 32,
            "TEXCOORD_0": 34
          },
          "indices": 35,
          "material": 0,
          "mode": 4
        }
      ]
    },
    {
      "name": "Plane.003_Material_0",
      "primitives": [
        {
          "attributes": {
            "NORMAL": 37,
            "POSITION": 36,
            "TEXCOORD_0": 38
          },
          "indices": 39,
          "material": 0,
          "mode": 4
        }
      ]
    },
    {
      "name": "Plane.004_Material_0",
      "primitives": [
        {
          "attributes": {
            "NORMAL": 41,
            "POSITION": 40,
            "TEXCOORD_0": 42
          },
          "indices": 43,
          "material": 0,
          "mode": 4
        }
      ]
    },
    {
      "name": "Plane.005_Material_0",
      "primitives": [
        {
          "attributes": {
            "NORMAL": 45,
            "POSITION": 44,
            "TEXCOORD_0": 46
          },
          "indices": 47,
          "material": 0,
          "mode": 4
        }
      ]
    },
    {
      "name": "Plane.006_Material_0",
      "primitives": [
        {
          "attributes": {
            "NORMAL": 49,
            "POSITION": 48,
            "TEXCOORD_0": 50
          },
          "indices": 51,
          "material": 0,
          "mode": 4
        }
      ]
    },
    {
      "name": "Plane.007_Material_0",
      "primitives": [
        {
          "attributes": {
            "NORMAL": 53,
            "POSITION": 52,
            "TEXCOORD_0": 54
          },
          "indices": 55,
          "material": 0,
          "mode": 4
        }
      ]
    },
    {
      "name": "Plane.008_Material_0",
      "primitives": [
        {
          "attributes": {
            "NORMAL": 57,
            "POSITION": 56,
            "TEXCOORD_0": 58
          },
          "indices": 59,
          "material": 0,
          "mode": 4
        }
      ]
    },
    {
      "name": "Plane.009_Material_0",
      "primitives": [
        {
          "attributes": {
            "NORMAL": 61,
            "POSITION": 60,
            "TEXCOORD_0": 62
          },
          "indices": 63,
          "material": 0,
          "mode": 4
        }
      ]
    },
    {
      "name": "Plane.010_Material_0",
      "primitives": [
        {
          "attributes": {
            "NORMAL": 65,
            "POSITION": 64,
            "TEXCOORD_0": 66
          },
          "indices": 67,
          "material": 0,
          "mode": 4
        }
      ]
    },
    {
      "name": "Plane.011_Material_0",
      "primitives": [
        {
          "attributes": {
            "NORMAL": 69,
            "POSITION": 68,
            "TEXCOORD_0": 70
          },
          "indices": 71,
          "material": 0,
          "mode": 4
        }
      ]
    },
    {
      "name": "Plane.012_Material_0",
      "primitives": [
        {
          "attributes": {
            "NORMAL": 73,
            "POSITION": 72,
            "TEXCOORD_0": 74
          },
          "indices": 75,
          "material": 0,
          "mode": 4
        }
      ]
    }
  ],
  "nodes": [
    {
      "children": [
        1
      ],
      "matrix": [
        1.0,
        0.0,
        0.0,
        0.0,
        0.0,
        2.220446049250313e-16,
        -1.0,
        0.0,
        0.0,
        1.0,
        2.220446049250313e-16,
        0.0,
        0.0,
        0.0,
        0.0,
        1.0
      ],
      "name": "Sketchfab_model"
    },
    {
      "children": [
        2
      ],
      "matrix": [
        0.009999999776482582,
        0.0,
        0.0,
        0.0,
        0.0,
        0.0,
        0.009999999776482582,
        0.0,
        0.0,
        -0.009999999776482582,
        0.0,
        0.0,
        0.0,
        0.0,
        0.0,
        1.0
      ],
      "name": "Basketball Court.fbx"
    },
    {
      "children": [
        3,
        5,
        7,
        9,
        11,
        13,
        15,
        17,
        19,
        21,
        23,
        25,
        27,
        29,
        31,
        33,
        35,
        37,
        39
      ],
      "name": "RootNode"
    },
    {
      "children": [
        4
      ],
      "matrix": [
        -5.870456345713466,
        11.136216381036727,
        -7.452712447055377,
        0.0,
        -13.399754878037806,
        -4.836462555553557,
        3.328020864021866,
        0.0,
        0.06950339091564825,
        8.161728054702577,
        12.140915630502679,
        0.0,
        -175.3079833984375,
        47.71711349487305,
        103.10846710205078,
        1.0
      ],
      "name": "Cube"
    },
    {
      "mesh": 0,
      "name": "Cube_Material_0"
    },
    {
      "children": [
        6
      ],
      "matrix": [
        100.0,
        0.0,
        0.0,
        0.0,
        -0.0,
        -1.629206793918314e-05,
        -99.99999999999868,
        0.0,
        0.0,
        99.99999999999868,
        -1.629206793918314e-05,
        0.0,
        -149.69119262695313,
        65.53063201904297,
        2.9802322387695313e-06,
        1.0
      ],
      "name": "Cube.001"
    },
    {
      "mesh": 1,
      "name": "Cube.001_Material_0"
    },
    {
      "children": [
        8
      ],
      "matrix": [
        6.0062058827561575,
        7.6436847647662685,
        -2.515666619949694,
        0.0,
        0.25686539173229983,
        -3.3196539609952715,
        -9.473275111283662,
        0.0,
        -8.042917101954496,
        5.602052063422024,
        -2.1811697782842847,
        0.0,
        -59.583343505859375,
        36.625099182128906,
        116.82713317871094,
        1.0
      ],
      "name": "Cube.002"
    },
    {
      "mesh": 2,
      "name": "Cube.002_Material_0"
    },
    {
      "children": [
        10
      ],
      "matrix": [
        9.008907184545148,
        11.465013194796569,
        -3.7733329875214974,
        0.0,
        0.38527926070571883,
        -4.979260202658671,
        -14.209278375719718,
        0.0,
        -12.063835598152108,
        8.402703597529522,
        -3.2716083145983346,
        0.0,
        -171.7782440185547,
        54.16630554199219,
        -108.92686462402344,
        1.0
      ],
      "name": "Cube.003"
    },
    {
      "mesh": 3,
      "name": "Cube.003_Material_0"
    },
    {
      "children": [
        12
      ],
      "matrix": [
        9.008907184545148,
        11.465013194796569,
        -3.7733329875214974,
        0.0,
        0.38527926070571883,
        -4.979260202658671,
        -14.209278375719718,
        0.0,
        -12.063835598152108,
        8.402703597529522,
        -3.2716083145983346,
        0.0,
        178.837890625,
        54.16630554199219,
        -99.90365600585938,
        1.0
      ],
      "name": "Cube.004"
    },
    {
      "mesh": 4,
      "name": "Cube.004_Material_0"
    },
    {
      "children": [
        14
      ],
      "matrix": [
        -17.355800040231184,
        3.3133627478480417e-06,
        62.57796674556547,
        0.0,
        62.57796674556514,
        8.439149093267996e-06,
        17.35580004023066,
        0.0,
        -7.246650680043892e-06,
        64.9401702880853,
        -5.4482716247308585e-06,
        0.0,
        177.52935791015625,
        30.077085494995117,
        -97.44307708740234,
        1.0
      ],
      "name": "Cylinder.003"
    },
    {
      "mesh": 5,
      "name": "Cylinder.003_Material_0"
    },
    {
      "children": [
        16
      ],
      "matrix": [
        100.0,
        0.0,
        0.0,
        0.0,
        0.0,
        -1.629206793918314e-05,
        -99.99999999999868,
        0.0,
        0.0,
        99.99999999999868,
        -1.629206793918314e-05,
        0.0,
        0.0,
        0.0,
        0.0,
        1.0
      ],
      "name": "Plane"
    },
    {
      "mesh": 6,
      "name": "Plane_Material_0"
    },
    {
      "children": [
        18
      ],
      "matrix": [
        150.0,
        0.0,
        0.0,
        0.0,
        0.0,
        -1.629206793918314e-05,
        -99.99999999999868,
        0.0,
        0.0,
        99.99999999999868,
        -1.629206793918314e-05,
        0.0,
        0.0,
        -0.10000000149011612,
        0.0,
        1.0
      ],
      "name": "Plane.001"
    },
    {
      "mesh": 7,
      "name": "Plane.001_Material_0"
    },
    {
      "children": [
        20
      ],
      "matrix": [
        150.0,
        0.0,
        0.0,
        0.0,
        0.0,
        -1.629206793918314e-05,
        -99.99999999999868,
        0.0,
        0.0,
        99.99999999999868,
        -1.629206793918314e-05,
        0.0,
        0.0,
        -0.10000000149011612,
        0.0,
        1.0
      ],
      "name": "Plane.002"
    },
    {
      "mesh": 8,
      "name": "Plane.002_Material_0"
    },
    {
      "children": [
        22
      ],
      "matrix": [
        17.0589049264425,
        -2.695839311258356e-07,
        6.296595148277669,
        0.0,
        6.296595148277672,
        1.2733385940353147e-06,
        -17.058904926442455,
        0.0,
        -1.8801774272690163e-07,
        18.183877944946243,
        1.2879116255703174e-06,
        0.0,
        132.55946350097656,
        -0.1942746341228485,
        124.34671783447266,
        1.0
      ],
      "name": "Plane.003"
    },
    {
      "mesh": 9,
      "name": "Plane.003_Material_0"
    },
    {
      "children": [
        24
      ],
      "matrix": [
        17.0589049264425,
        -2.695839311258356e-07,
        6.296595148277669,
        0.0,
        6.296595148277672,
        1.2733385940353147e-06,
        -17.058904926442455,
        0.0,
        -1.8801774272690163e-07,
        18.183877944946243,
        1.2879116255703174e-06,
        0.0,
        -115.18086242675781,
        -0.1942746341228485,
        112.8291244506836,
        1.0
      ],
      "name": "Plane.004"
    },
    {
      "mesh": 10,
      "name": "Plane.004_Material_0"
    },
    {
      "children": [
        26
      ],
      "matrix": [
        17.0589049264425,
        -2.695839311258356e-07,
        6.296595148277669,
        0.0,
        6.296595148277672,
        1.2733385940353147e-06,
        -17.058904926442455,
        0.0,
        -1.8801774272690163e-07,
        18.183877944946243,
        1.2879116255703174e-06,
        0.0,
        -166.4488067626953,
        -0.1942746341228485,
        60.9395637512207,
        1.0
      ],
      "name": "Plane.005"
    },
    {
      "mesh": 11,
      "name": "Plane.005_Material_0"
    },
    {
      "children": [
        28
      ],
      "matrix": [
        17.0589049264425,
        -2.695839311258356e-07,
        6.296595148277669,
        0.0,
        6.296595148277672,
        1.2733385940353147e-06,
        -17.058904926442455,
        0.0,
        -1.8801774272690163e-07,
        18.183877944946243,
        1.2879116255703174e-06,
        0.0,
        -157.74586486816406,
        -0.1942746341228485,
        -39.76593017578125,
        1.0
      ],
      "name": "Plane.006"
    },
    {
      "mesh": 12,
      "name": "Plane.006_Material_0"
    },
    {
      "children": [
        30
      ],
      "matrix": [
        17.0589049264425,
        -2.695839311258356e-07,
        6.296595148277669,
        0.0,
        6.296595148277672,
        1.2733385940353147e-06,
        -17.058904926442455,
        0.0,
        -1.8801774272690163e-07,
        18.183877944946243,
        1.2879116255703174e-06,
        0.0,
        -119.82588958740234,
        -0.1942746341228485,
        -110.63275146484375,
        1.0
      ],
      "name": "Plane.007"
    },
    {
      "mesh": 13,
      "name": "Plane.007_Material_0"
    },
    {
      "children": [
        32
      ],
      "matrix": [
        17.0589049264425,
        -2.695839311258356e-07,
        6.296595148277669,
        0.0,
        6.296595148277672,
        1.2733385940353147e-06,
        -17.058904926442455,
        0.0,
        -1.8801774272690163e-07,
        18.183877944946243,
        1.2879116255703174e-06,
        0.0,
        -111.12294006347656,
        -0.1942746341228485,
        -120.5789794921875,
        1.0
      ],
      "name": "Plane.008"
    },
    {
      "mesh": 14,
      "name": "Plane.008_Material_0"
    },
    {
      "children": [
        34
      ],
      "matrix": [
        17.0589049264425,
        -2.695839311258356e-07,
        6.296595148277669,
        0.0,
        6.296595148277672,
        1.2733385940353147e-06,
        -17.058904926442455,
        0.0,
        -1.8801774272690163e-07,
        18.183877944946243,
        1.2879116255703174e-06,
        0.0,
        -43.98594665527344,
        -0.1942746341228485,
        -113.11931610107422,
        1.0
      ],
      "name": "Plane.009"
    },
    {
      "mesh": 15,
      "name": "Plane.009_Material_0"
    },
    {
      "children": [
        36
      ],
      "matrix": [
        17.0589049264425,
        -2.695839311258356e-07,
        6.296595148277669,
        0.0,
        6.296595148277672,
        1.2733385940353147e-06,
        -17.058904926442455,
        0.0,
        -1.8801774272690163e-07,
        18.183877944946243,
        1.2879116255703174e-06,
        0.0,
        81.5851058959961,
        -0.1942746341228485,
        -122.44390106201172,
        1.0
      ],
      "name": "Plane.010"
    },
    {
      "mesh": 16,
      "name": "Plane.010_Material_0"
    },
    {
      "children": [
        38
      ],
      "matrix": [
        17.0589049264425,
        -2.695839311258356e-07,
        6.296595148277669,
        0.0,
        6.296595148277672,
        1.2733385940353147e-06,
        -17.058904926442455,
        0.0,
        -1.8801774272690163e-07,
        18.183877944946243,
        1.2879116255703174e-06,
        0.0,
        171.10108947753906,
        -0.1942746341228485,
        65.91266632080078,
        1.0
      ],
      "name": "Plane.011"
    },
    {
      "mesh": 17,
      "name": "Plane.011_Material_0"
    },
    {
      "children": [
        40
      ],
      "matrix": [
        17.0589049264425,
        -2.695839311258356e-07,
        6.296595148277669,
        0.0,
        6.296595148277672,
        1.2733385940353147e-06,
        -17.058904926442455,
        0.0,
        -1.8801774272690163e-07,
        18.183877944946243,
        1.2879116255703174e-06,
        0.0,
        187.88534545898438,
        -0.1942746341228485,
        -39.14430236816406,
        1.0
      ],
      "name": "Plane.012"
    },
    {
      "mesh": 18,
      "name": "Plane.012_Material_0"
    }
  ],
  "samplers": [
    {
      "magFilter": 9728,
      "minFilter": 9986,
      "wrapS": 10497,
      "wrapT": 10497
    }
  ],
  "scene": 0,
  "scenes": [
    {
      "name": "Sketchfab_Scene",
      "nodes": [
        0
      ]
    }
  ],
  "textures": [
    {
      "sampler": 0,
      "source": 0
    }
  ]
}
